<?xml version="1.0" encoding="UTF-8" standalone="no"?>
<!-- Uploaded to: SVG Repo, www.svgrepo.com, Generator: SVG Repo Mixer Tools -->

<svg
   fill="#000000"
   width="800px"
   height="800px"
   viewBox="0 0 32 32"
   version="1.1"
   id="svg1"
   sodipodi:docname="flask-svgrepo-com.svg"
   inkscape:version="1.3.2 (091e20e, 2023-11-25, custom)"
   xmlns:inkscape="http://www.inkscape.org/namespaces/inkscape"
   xmlns:sodipodi="http://sodipodi.sourceforge.net/DTD/sodipodi-0.dtd"
   xmlns="http://www.w3.org/2000/svg"
   xmlns:svg="http://www.w3.org/2000/svg">
  <defs
     id="defs1" />
  <sodipodi:namedview
     id="namedview1"
     pagecolor="#ffffff"
     bordercolor="#666666"
     borderopacity="1.0"
     inkscape:showpageshadow="2"
     inkscape:pageopacity="0.0"
     inkscape:pagecheckerboard="0"
     inkscape:deskcolor="#d1d1d1"
     inkscape:zoom="1"
     inkscape:cx="399.5"
     inkscape:cy="400"
     inkscape:window-width="1920"
     inkscape:window-height="991"
     inkscape:window-x="-9"
     inkscape:window-y="-9"
     inkscape:window-maximized="1"
     inkscape:current-layer="svg1" />
  <title
     id="title1">flask</title>
  <path
     d="M0 26.016q0 2.464 1.76 4.224t4.256 1.76h20q2.464 0 4.224-1.76t1.76-4.256-1.76-4.224l-8.224-8.224v-9.536q0.8 0 1.408-0.576t0.576-1.408-0.576-1.408-1.408-0.608h-12q-0.832 0-1.44 0.608t-0.576 1.408 0.576 1.408 1.44 0.576v9.536l-8.256 8.224q-1.76 1.76-1.76 4.256zM4 26.016q0.032-0.864 0.608-1.44l9.408-9.408v-11.168h4v11.168l9.408 9.408q0.576 0.608 0.576 1.44t-0.576 1.408q-0.608 0.576-1.408 0.576h-20q-0.832 0-1.44-0.576-0.576-0.576-0.576-1.408zM6.016 26.016l4-4h12l4 4h-20z"
     id="path1"
     style="fill:#7137c8" />
</svg>
