<?xml version="1.0" encoding="UTF-8" standalone="no"?>
<!-- Uploaded to: SVG Repo, www.svgrepo.com, Generator: SVG Repo Mixer Tools -->

<svg
   fill="#000000"
   height="535.34229"
   width="531.81"
   version="1.1"
   id="Capa_1"
   viewBox="0 0 306.18961 308.22332"
   xml:space="preserve"
   sodipodi:docname="antenna-svgrepo-com.svg"
   inkscape:version="1.2.2 (732a01da63, 2022-12-09)"
   inkscape:export-filename="antenna-svgrepo-com.png"
   inkscape:export-xdpi="96"
   inkscape:export-ydpi="96"
   xmlns:inkscape="http://www.inkscape.org/namespaces/inkscape"
   xmlns:sodipodi="http://sodipodi.sourceforge.net/DTD/sodipodi-0.dtd"
   xmlns="http://www.w3.org/2000/svg"
   xmlns:svg="http://www.w3.org/2000/svg"><defs
   id="defs71" /><sodipodi:namedview
   id="namedview69"
   pagecolor="#ffffff"
   bordercolor="#666666"
   borderopacity="1.0"
   inkscape:showpageshadow="2"
   inkscape:pageopacity="0.0"
   inkscape:pagecheckerboard="0"
   inkscape:deskcolor="#d1d1d1"
   showgrid="false"
   inkscape:zoom="1.4962389"
   inkscape:cx="266.00029"
   inkscape:cy="267.67115"
   inkscape:window-width="1920"
   inkscape:window-height="991"
   inkscape:window-x="-9"
   inkscape:window-y="-9"
   inkscape:window-maximized="1"
   inkscape:current-layer="Capa_1" />
<g
   id="g66"
   style="fill:#0000ff"
   transform="matrix(0.45703319,0,0,0.45703319,47.862887,58.27183)">
	<g
   id="g64"
   style="fill:#0000ff">
		<path
   d="m 325.4,75.4 c 3.2,0 6.3,-1.3 8.5,-3.5 2.2,-2.2 3.5,-5.3 3.5,-8.5 0,-3.1 -1.3,-6.3 -3.5,-8.5 -2.2,-2.2 -5.3,-3.5 -8.5,-3.5 -3.2,0 -6.3,1.3 -8.5,3.5 -2.2,2.2 -3.5,5.3 -3.5,8.5 0,3.2 1.3,6.3 3.5,8.5 2.2,2.2 5.3,3.5 8.5,3.5 z"
   id="path2"
   style="fill:#0000ff" />
		<path
   d="m 385.1,146.2 c -1.1,-6.5 -7.3,-10.9 -13.9,-9.8 -6.5,1.1 -10.9,7.3 -9.8,13.9 1,5.8 6.1,10 11.8,10 0.7,0 1.3,-0.1 2,-0.2 6.6,-1.1 11,-7.3 9.9,-13.9 z"
   id="path4"
   style="fill:#0000ff" />
		<path
   d="m 367.1,250.2 c 3.3,-5.8 1.2,-13.1 -4.5,-16.4 -5.8,-3.3 -13.1,-1.2 -16.4,4.6 -3.3,5.8 -1.2,13.1 4.6,16.3 1.9,1.1 3.9,1.6 5.9,1.6 4.2,0 8.2,-2.2 10.4,-6.1 z"
   id="path6"
   style="fill:#0000ff" />
		<path
   d="m 356.7,113.7 c 2,0 4,-0.5 5.9,-1.6 5.8,-3.3 7.8,-10.6 4.5,-16.4 -3.3,-5.8 -10.6,-7.8 -16.4,-4.5 -5.8,3.3 -7.8,10.6 -4.5,16.4 2.2,3.9 6.3,6.1 10.5,6.1 z"
   id="path8"
   style="fill:#0000ff" />
		<path
   d="m 375.3,185.9 c -6.5,-1.1 -12.7,3.3 -13.9,9.8 -1.1,6.5 3.3,12.7 9.8,13.9 0.7,0.1 1.4,0.2 2,0.2 5.7,0 10.8,-4.1 11.8,-10 1.2,-6.6 -3.2,-12.8 -9.7,-13.9 z"
   id="path10"
   style="fill:#0000ff" />
		<path
   d="m 325.4,294.6 c 3.2,0 6.3,-1.3 8.5,-3.5 2.2,-2.2 3.5,-5.3 3.5,-8.5 0,-3.2 -1.3,-6.3 -3.5,-8.5 -2.2,-2.2 -5.3,-3.5 -8.5,-3.5 -3.2,0 -6.3,1.3 -8.5,3.5 -2.2,2.2 -3.5,5.3 -3.5,8.5 0,3.2 1.3,6.3 3.5,8.5 2.2,2.2 5.3,3.5 8.5,3.5 z"
   id="path12"
   style="fill:#0000ff" />
		<path
   d="m 135.2,270.6 c -3.2,0 -6.3,1.3 -8.5,3.5 -2.2,2.2 -3.5,5.3 -3.5,8.5 0,3.2 1.3,6.3 3.5,8.5 2.2,2.2 5.3,3.5 8.5,3.5 3.2,0 6.3,-1.3 8.5,-3.5 2.2,-2.2 3.5,-5.3 3.5,-8.5 0,-3.2 -1.3,-6.3 -3.5,-8.5 -2.2,-2.2 -5.3,-3.5 -8.5,-3.5 z"
   id="path14"
   style="fill:#0000ff" />
		<path
   d="m 93.4,95.8 c -3.3,5.8 -1.2,13.1 4.5,16.4 1.9,1.1 3.9,1.6 5.9,1.6 4.2,0 8.3,-2.2 10.5,-6.1 3.3,-5.8 1.2,-13.1 -4.5,-16.4 C 104,88 96.7,90 93.4,95.8 Z"
   id="path16"
   style="fill:#0000ff" />
		<path
   d="m 87.3,209.7 c 0.7,0 1.4,-0.1 2,-0.2 6.5,-1.1 10.9,-7.3 9.8,-13.9 -1.1,-6.5 -7.3,-10.9 -13.9,-9.8 -6.5,1.1 -10.9,7.3 -9.8,13.9 1.1,5.9 6.2,10 11.9,10 z"
   id="path18"
   style="fill:#0000ff" />
		<path
   d="m 87.3,160.3 c 5.7,0 10.8,-4.1 11.8,-10 1.1,-6.5 -3.3,-12.7 -9.8,-13.9 -6.5,-1.1 -12.7,3.3 -13.9,9.8 -1.1,6.5 3.3,12.7 9.8,13.9 0.8,0.1 1.4,0.2 2.1,0.2 z"
   id="path20"
   style="fill:#0000ff" />
		<path
   d="m 98,233.9 c -5.8,3.3 -7.8,10.6 -4.5,16.4 v 0 c 2.2,3.9 6.3,6.1 10.5,6.1 2,0 4,-0.5 5.9,-1.6 5.8,-3.3 7.8,-10.6 4.5,-16.4 -3.3,-5.8 -10.6,-7.8 -16.4,-4.5 z"
   id="path22"
   style="fill:#0000ff" />
		<path
   d="m 135.2,75.4 c 3.2,0 6.3,-1.3 8.5,-3.5 2.2,-2.2 3.5,-5.3 3.5,-8.5 0,-3.1 -1.3,-6.3 -3.5,-8.5 -2.2,-2.2 -5.3,-3.5 -8.5,-3.5 -3.2,0 -6.3,1.3 -8.5,3.5 -2.2,2.2 -3.5,5.3 -3.5,8.5 0,3.2 1.3,6.3 3.5,8.5 2.3,2.2 5.4,3.5 8.5,3.5 z"
   id="path24"
   style="fill:#0000ff" />
		<path
   d="m 376.7,24 c 3.2,0 6.3,-1.3 8.5,-3.5 2.2,-2.2 3.5,-5.3 3.5,-8.5 0,-3.2 -1.3,-6.3 -3.5,-8.5 C 383,1.3 379.9,0 376.7,0 c -3.2,0 -6.3,1.3 -8.5,3.5 -2.2,2.2 -3.5,5.3 -3.5,8.5 0,3.2 1.3,6.3 3.5,8.5 2.3,2.2 5.4,3.5 8.5,3.5 z"
   id="path26"
   style="fill:#0000ff" />
		<path
   d="m 418.4,89.8 c 2,4.5 6.4,7.1 11,7.1 1.6,0 3.3,-0.3 4.9,-1 6.1,-2.7 8.8,-9.8 6.1,-15.8 -2.7,-6.1 -9.8,-8.8 -15.8,-6.1 -6.1,2.7 -8.9,9.8 -6.2,15.8 z"
   id="path28"
   style="fill:#0000ff" />
		<path
   d="m 434.3,250 c -6.1,-2.7 -13.1,0.1 -15.8,6.1 -2.7,6.1 0.1,13.1 6.1,15.8 1.6,0.7 3.2,1 4.9,1 4.6,0 9,-2.7 11,-7.1 2.6,-6 -0.2,-13.1 -6.2,-15.8 z"
   id="path30"
   style="fill:#0000ff" />
		<path
   d="m 445.7,206.2 c -6.5,-1.4 -12.9,2.8 -14.2,9.3 -1.4,6.5 2.8,12.9 9.3,14.2 0.8,0.2 1.7,0.3 2.5,0.3 5.6,0 10.5,-3.9 11.7,-9.5 1.4,-6.6 -2.8,-12.9 -9.3,-14.3 z"
   id="path32"
   style="fill:#0000ff" />
		<path
   d="m 447.9,161 c -6.6,0 -12,5.4 -12,12 0,6.6 5.4,12 12,12 6.6,0 12,-5.4 12,-12 0,-6.7 -5.3,-12 -12,-12 z"
   id="path34"
   style="fill:#0000ff" />
		<path
   d="m 406.9,57.7 c 2.4,0 4.9,-0.7 7,-2.3 5.4,-3.9 6.6,-11.4 2.7,-16.8 -3.9,-5.4 -11.4,-6.6 -16.8,-2.7 -5.4,3.9 -6.6,11.4 -2.7,16.8 2.4,3.3 6.1,5 9.8,5 z"
   id="path36"
   style="fill:#0000ff" />
		<path
   d="m 413.9,290.5 c -5.4,-3.9 -12.9,-2.7 -16.8,2.7 -3.9,5.4 -2.7,12.9 2.7,16.8 2.1,1.5 4.6,2.3 7,2.3 3.7,0 7.4,-1.7 9.7,-5 4,-5.4 2.8,-13 -2.6,-16.8 z"
   id="path38"
   style="fill:#0000ff" />
		<path
   d="m 431.5,130.4 c 1.2,5.6 6.2,9.5 11.7,9.5 0.8,0 1.6,-0.1 2.5,-0.3 6.5,-1.4 10.6,-7.7 9.3,-14.2 -1.4,-6.5 -7.7,-10.6 -14.2,-9.3 -6.5,1.5 -10.6,7.9 -9.3,14.3 z"
   id="path40"
   style="fill:#0000ff" />
		<path
   d="m 376.8,322 c -3.2,0 -6.3,1.3 -8.5,3.5 -2.2,2.2 -3.5,5.3 -3.5,8.5 0,3.2 1.3,6.3 3.5,8.5 2.2,2.2 5.3,3.5 8.5,3.5 3.2,0 6.3,-1.3 8.5,-3.5 2.2,-2.2 3.5,-5.3 3.5,-8.5 0,-3.2 -1.3,-6.3 -3.5,-8.5 -2.3,-2.2 -5.4,-3.5 -8.5,-3.5 z"
   id="path42"
   style="fill:#0000ff" />
		<path
   d="m 83.8,322 c -3.2,0 -6.3,1.3 -8.5,3.5 -2.2,2.2 -3.5,5.3 -3.5,8.5 0,3.1 1.3,6.3 3.5,8.5 2.2,2.2 5.3,3.5 8.5,3.5 3.2,0 6.3,-1.3 8.5,-3.5 2.2,-2.2 3.5,-5.3 3.5,-8.5 0,-3.2 -1.3,-6.3 -3.5,-8.5 C 90.1,323.3 87,322 83.8,322 Z"
   id="path44"
   style="fill:#0000ff" />
		<path
   d="m 14.8,139.8 c 0.8,0.2 1.7,0.3 2.5,0.3 5.5,0 10.5,-3.9 11.7,-9.5 1.4,-6.5 -2.8,-12.9 -9.3,-14.2 -6.5,-1.4 -12.9,2.8 -14.2,9.3 -1.3,6.4 2.9,12.7 9.3,14.1 z"
   id="path46"
   style="fill:#0000ff" />
		<path
   d="m 46.7,55.5 c 2.1,1.5 4.6,2.3 7,2.3 3.7,0 7.4,-1.7 9.7,-5 3.9,-5.4 2.7,-12.9 -2.7,-16.8 -5.4,-3.9 -12.9,-2.7 -16.8,2.7 -3.8,5.4 -2.6,12.9 2.8,16.8 z"
   id="path48"
   style="fill:#0000ff" />
		<path
   d="M 29.1,215.6 C 27.7,209.1 21.4,205 14.9,206.3 8.4,207.7 4.3,214 5.6,220.5 v 0 c 1.2,5.7 6.2,9.5 11.7,9.5 0.8,0 1.6,-0.1 2.5,-0.3 6.5,-1.3 10.6,-7.7 9.3,-14.1 z"
   id="path50"
   style="fill:#0000ff" />
		<path
   d="m 24.7,173 c 0,-6.6 -5.4,-12 -12,-12 -6.6,0 -12,5.4 -12,12 0,6.6 5.4,12 12,12 6.6,0 12,-5.3 12,-12 z"
   id="path52"
   style="fill:#0000ff" />
		<path
   d="m 26.3,96 c 1.6,0.7 3.2,1 4.9,1 4.6,0 9,-2.7 11,-7.1 C 44.9,83.8 42.1,76.8 36.1,74.1 30,71.4 23,74.2 20.3,80.2 c -2.8,6 0,13.1 6,15.8 z"
   id="path54"
   style="fill:#0000ff" />
		<path
   d="m 46.7,290.5 c -5.4,3.9 -6.6,11.4 -2.7,16.8 2.3,3.3 6,5 9.7,5 2.4,0 4.9,-0.7 7,-2.3 5.4,-3.9 6.6,-11.4 2.7,-16.8 -3.8,-5.3 -11.3,-6.6 -16.7,-2.7 z"
   id="path56"
   style="fill:#0000ff" />
		<path
   d="m 42.2,256.2 c -2.7,-6.1 -9.8,-8.8 -15.8,-6.1 -6.1,2.7 -8.8,9.8 -6.1,15.8 2,4.5 6.4,7.2 11,7.2 1.6,0 3.3,-0.3 4.9,-1 5.9,-2.8 8.7,-9.9 6,-15.9 z"
   id="path58"
   style="fill:#0000ff" />
		<path
   d="m 83.8,24 c 3.1,0 6.3,-1.3 8.5,-3.5 2.2,-2.2 3.5,-5.3 3.5,-8.5 C 95.8,8.8 94.5,5.7 92.3,3.5 90.1,1.3 87,0 83.8,0 80.6,0 77.5,1.3 75.3,3.5 73.1,5.7 71.8,8.8 71.8,12 c 0,3.2 1.3,6.3 3.5,8.5 2.3,2.2 5.4,3.5 8.5,3.5 z"
   id="path60"
   style="fill:#0000ff" />
		<path
   d="m 265.4,233.6 c 20.9,-12.1 34.9,-34.7 34.9,-60.6 0,-38.6 -31.4,-70 -70,-70 -38.6,0 -70,31.4 -70,70 0,25.8 14.1,48.4 34.9,60.6 l -77.7,210.9 c -1.4,3.7 -0.8,7.8 1.4,11 2.2,3.2 5.9,5.1 9.8,5.1 h 203.1 c 3.9,0 7.6,-1.9 9.8,-5.1 2.2,-3.2 2.8,-7.3 1.4,-11 z M 184.3,173 c 0,-25.4 20.7,-46 46,-46 25.3,0 46,20.7 46,46 0,19.7 -12.5,36.6 -30,43.1 -0.1,0 -0.1,0 -0.2,0.1 -0.1,0 -0.1,0.1 -0.2,0.1 -4.9,1.8 -10.2,2.8 -15.7,2.8 C 204.9,219 184.3,198.4 184.3,173 Z m 33.4,68.9 c 4.1,0.7 8.3,1.2 12.6,1.2 4.3,0 8.5,-0.4 12.6,-1.2 L 277.2,335 H 183.4 Z M 145.9,436.6 174.5,359 H 286 l 28.6,77.6 z"
   id="path62"
   style="fill:#0000ff" />
	</g>
</g>
<ellipse
   style="fill:none;stroke:#0000ff;stroke-width:6.31528;stroke-linecap:square;stroke-linejoin:bevel;stroke-dasharray:none"
   id="path1015"
   cx="153.0948"
   cy="154.11166"
   rx="149.93716"
   ry="150.95403" /></svg>
