<?xml version="1.0" encoding="UTF-8" standalone="no"?>
<!-- Uploaded to: SVG Repo, www.svgrepo.com, Generator: SVG Repo Mixer Tools -->

<svg
   fill="#000000"
   version="1.1"
   id="Layer_1"
   width="734.29651"
   height="750.43036"
   viewBox="0 0 234.97488 240.13771"
   enable-background="new 0 0 256 256"
   xml:space="preserve"
   sodipodi:docname="propeller-motion-device-thrust-svgrepo-com.svg"
   inkscape:export-filename="propeller-motion-device-thrust-svgrepo-com.png"
   inkscape:export-xdpi="96"
   inkscape:export-ydpi="96"
   inkscape:version="1.2.2 (732a01da63, 2022-12-09)"
   xmlns:inkscape="http://www.inkscape.org/namespaces/inkscape"
   xmlns:sodipodi="http://sodipodi.sourceforge.net/DTD/sodipodi-0.dtd"
   xmlns="http://www.w3.org/2000/svg"
   xmlns:svg="http://www.w3.org/2000/svg"><defs
   id="defs7" /><sodipodi:namedview
   id="namedview5"
   pagecolor="#ffffff"
   bordercolor="#666666"
   borderopacity="1.0"
   inkscape:showpageshadow="2"
   inkscape:pageopacity="0.0"
   inkscape:pagecheckerboard="0"
   inkscape:deskcolor="#d1d1d1"
   showgrid="false"
   inkscape:zoom="1.0673875"
   inkscape:cx="367.25183"
   inkscape:cy="375.21519"
   inkscape:window-width="1920"
   inkscape:window-height="991"
   inkscape:window-x="-9"
   inkscape:window-y="-9"
   inkscape:window-maximized="1"
   inkscape:current-layer="Layer_1" />
<path
   d="m 135.40789,123.35372 c 0,18.345 -14.871,33.216 -33.216,33.216 -18.345,0 -33.217,-14.871 -33.217,-33.216 0,-18.345 14.871,-33.215996 33.216,-33.215996 18.345,0 33.217,14.870996 33.217,33.215996 z m -77.406,7.803 c -2.623,-14.817 2.362,-29.244 12.13,-39.285996 -24.024,2.993 -46.407,16.799996 -59.431,39.393996 -21.948,38.073 -9.0520002,86.672 28.785,108.873 l 43.816,-76.012 c -2.336,-1.097 -4.598,-2.394 -6.756,-3.904 -9.861,-6.895 -16.447,-17.217 -18.544,-29.065 z m 89.209,-11.899 c 2.094,23.037 -13.815,44.298 -37,48.403 -2.652,0.469 -5.311,0.702 -7.948,0.702 -3.728,0 -7.415,-0.471 -10.996,-1.382 14.672,19.228 37.825,31.661 63.814,31.644 43.946,-0.03 79.586,-35.498 79.894,-79.366 z m -1.5,-8.186 c 9.402,-22.292996 8.629,-48.562996 -4.418,-71.125996 -21.999,-38.0429999 -70.534,-51.175 -108.68,-29.507 l 43.929,75.967 c 5.216,-3.661 11.285,-6.275 17.964,-7.458 22.966,-4.064 45.016,10.127 51.205,32.123996 z"
   id="path2"
   style="fill:#008000" />
</svg>
