<?xml version="1.0" encoding="UTF-8" standalone="no"?>
<!-- Uploaded to: SVG Repo, www.svgrepo.com, Generator: SVG Repo Mixer Tools -->

<svg
   fill="#000000"
   width="627.47552"
   height="495.35178"
   viewBox="-1.5 0 14.902544 11.764605"
   class="cf-icon-svg"
   version="1.1"
   id="svg4"
   sodipodi:docname="wi-fi-svgrepo-com.svg"
   inkscape:version="1.2.2 (732a01da63, 2022-12-09)"
   inkscape:export-filename="wi-fi-svgrepo-com.png"
   inkscape:export-xdpi="96"
   inkscape:export-ydpi="96"
   xmlns:inkscape="http://www.inkscape.org/namespaces/inkscape"
   xmlns:sodipodi="http://sodipodi.sourceforge.net/DTD/sodipodi-0.dtd"
   xmlns="http://www.w3.org/2000/svg"
   xmlns:svg="http://www.w3.org/2000/svg">
  <defs
     id="defs8" />
  <sodipodi:namedview
     id="namedview6"
     pagecolor="#ffffff"
     bordercolor="#666666"
     borderopacity="1.0"
     inkscape:showpageshadow="2"
     inkscape:pageopacity="0.0"
     inkscape:pagecheckerboard="0"
     inkscape:deskcolor="#d1d1d1"
     showgrid="false"
     inkscape:zoom="0.36681164"
     inkscape:cx="389.84586"
     inkscape:cy="437.55427"
     inkscape:window-width="1920"
     inkscape:window-height="991"
     inkscape:window-x="-9"
     inkscape:window-y="-9"
     inkscape:window-maximized="1"
     inkscape:current-layer="svg4" />
  <path
     d="m 12.848018,3.9686049 a 0.553,0.553 0 0 1 -0.392,-0.163 9.192,9.192 0 0 0 -13.00999972,0 0.55401828,0.55401828 0 1 1 -0.78399998,-0.783 10.3,10.3 0 0 1 14.5779997,0 0.554,0.554 0 0 1 -0.392,0.946 z m -2.172,2.172 a 0.553,0.553 0 0 1 -0.392,-0.162 6.127,6.127 0 0 0 -8.6659997,0 0.55437172,0.55437172 0 0 1 -0.78400002,-0.784 7.23,7.23 0 0 1 10.23299972,0 0.554,0.554 0 0 1 -0.391,0.946 z m -2.1729997,2.173 a 0.553,0.553 0 0 1 -0.392,-0.162 3.054,3.054 0 0 0 -4.32,0 0.55437172,0.55437172 0 1 1 -0.784,-0.784 4.163,4.163 0 0 1 5.888,0 0.554,0.554 0 0 1 -0.392,0.946 z m -1.141,2.0480001 a 1.403,1.403 0 1 1 -1.403,-1.4030001 1.403,1.403 0 0 1 1.403,1.4030001 z"
     id="path2"
     style="fill:#0000ff" />
</svg>
